<svg width="120" height="130" viewBox="50 0 120 130" fill="none" xmlns="http://www.w3.org/2000/svg">
<rect width="220" height="130" fill="white"/>
<path d="M149.696 51.1945C149.706 47.9897 148.725 44.8601 146.887 42.2345C145.049 39.609 142.444 37.616 139.43 36.5285C139.703 35.1311 139.841 33.7104 139.84 32.2864C139.838 27.5727 138.342 22.9809 135.567 19.1705C132.792 15.3602 128.881 12.5273 124.396 11.0788C119.91 9.63031 115.081 9.64071 110.601 11.1085C106.122 12.5763 102.223 15.426 99.4647 19.2483C97.4304 17.6677 94.9362 16.7935 92.3602 16.7583C89.7843 16.7231 87.2671 17.5288 85.1904 19.0533C83.1137 20.5778 81.5908 22.7378 80.8525 25.2059C80.1141 27.674 80.2008 30.3156 81.0992 32.73C78.0768 33.8292 75.4638 35.8281 73.6119 38.4574C71.76 41.0868 70.7582 44.2204 70.7413 47.4364C70.731 50.6529 71.7185 53.7935 73.5676 56.4254C75.4168 59.0573 78.0366 61.0509 81.0662 62.1317C80.7971 63.5298 80.6608 64.9501 80.6592 66.3739C80.6494 71.0892 82.1391 75.6856 84.9129 79.4988C87.6868 83.312 91.6011 86.1446 96.0903 87.5872C100.58 89.0299 105.411 89.008 109.887 87.5246C114.363 86.0412 118.252 83.1732 120.991 79.3349C123.019 80.919 125.509 81.7977 128.083 81.8376C130.656 81.8775 133.172 81.0765 135.249 79.5561C137.326 78.0357 138.849 75.8791 139.589 73.4139C140.328 70.9486 140.242 68.3095 139.345 65.8972C142.365 64.7966 144.976 62.7977 146.826 60.1693C148.677 57.5408 149.678 54.4089 149.696 51.1945" fill="white"/>
<path d="M101.778 43.8651L119.051 51.737L136.496 36.4697C136.746 35.208 136.869 33.9244 136.863 32.6382C136.865 28.4753 135.534 24.421 133.064 21.0699C130.594 17.7188 127.116 15.247 123.139 14.017C119.162 12.7869 114.895 12.8633 110.964 14.235C107.034 15.6066 103.646 18.2013 101.298 21.6387L98.4014 36.6714L101.778 43.8651Z" fill="#FEC514"/>
<path d="M83.9011 62.1576C83.6509 63.4378 83.5281 64.7396 83.5344 66.0441C83.5308 70.222 84.8676 74.2909 87.3481 77.6527C89.8287 81.0146 93.3222 83.4921 97.3153 84.721C101.308 85.95 105.59 85.8657 109.532 84.4805C113.474 83.0952 116.867 80.4821 119.213 77.0252L122.091 62.0366L118.253 54.7036L100.895 46.7949L83.9011 62.1576Z" fill="#00BFB3"/>
<path d="M83.7911 32.2644L95.6266 35.0583L98.2225 21.5986C96.6116 20.3824 94.6507 19.7197 92.6323 19.7094C90.6139 19.699 88.6463 20.3417 87.0231 21.5413C85.3999 22.741 84.2081 24.4334 83.6256 26.3659C83.0431 28.2985 83.1012 30.3676 83.7911 32.2644" fill="#F04E98"/>
<path d="M82.7636 35.084C80.2023 35.9271 77.9651 37.5427 76.3592 39.7087C74.7534 41.8748 73.8578 44.4851 73.7955 47.1808C73.7332 49.8765 74.5073 52.5253 76.0114 54.7632C77.5155 57.0012 79.6757 58.7184 82.1953 59.6789L98.8045 44.6682L95.754 38.1528L82.7636 35.084Z" fill="#1BA9F5"/>
<path d="M122.238 77.0251C123.617 78.0851 125.264 78.7374 126.995 78.9079C128.725 79.0784 130.469 78.7604 132.027 77.9898C133.586 77.2192 134.898 76.0271 135.813 74.5487C136.728 73.0703 137.21 71.3649 137.205 69.6261C137.21 68.5196 137.018 67.4211 136.64 66.3812L124.812 63.613L122.238 77.0251Z" fill="#93C90E"/>
<path d="M124.643 60.5111L137.663 63.558C140.263 62.6823 142.524 61.0167 144.132 58.7937C145.74 56.5707 146.613 53.9013 146.631 51.1579C146.629 48.5144 145.823 45.9342 144.32 43.7594C142.817 41.5847 140.688 39.9184 138.216 38.9814L121.186 53.9041L124.643 60.5111Z" fill="#0077CC"/>
<path d="M77.8328 117.404L78.8594 117.298L78.929 119.392C76.6408 119.737 74.3316 119.925 72.0177 119.956C69.4634 119.956 67.6546 119.223 66.5913 117.756C65.528 116.29 64.9976 113.986 65 110.845C65 104.631 67.47 101.523 72.41 101.521C74.7957 101.521 76.58 102.188 77.7631 103.523C78.9462 104.858 79.5377 106.956 79.5377 109.818L79.3947 111.839H67.6949C67.6949 113.794 68.0493 115.247 68.7582 116.198C69.467 117.149 70.7026 117.622 72.465 117.617C74.2249 117.617 76.0142 117.546 77.8328 117.404ZM76.8795 109.727C76.8795 107.551 76.5299 106.015 75.8309 105.118C75.1318 104.221 73.9976 103.771 72.4283 103.769C70.8542 103.769 69.6724 104.242 68.8828 105.187C68.0933 106.133 67.6851 107.647 67.6582 109.727H76.8795Z" fill="#1C1E23"/>
<path d="M83.2451 119.821V96.4834H85.8997V119.821H83.2451Z" fill="#1C1E23"/>
<path d="M102.651 107.23V116.172C102.651 117.056 104.851 117.023 104.851 117.023L104.716 119.373C102.846 119.373 101.302 119.527 100.371 118.64C98.3628 119.531 96.1878 119.983 93.9911 119.967C92.3583 119.967 91.1178 119.506 90.2696 118.585C89.4214 117.663 88.9985 116.336 89.001 114.603C89.001 112.88 89.4385 111.61 90.3136 110.794C91.1887 109.977 92.5587 109.475 94.4237 109.287L99.9895 108.755V107.23C99.9895 106.022 99.7304 105.159 99.2122 104.641C98.929 104.374 98.5945 104.167 98.229 104.033C97.8635 103.898 97.4745 103.84 97.0856 103.86H90.0973V101.514H96.8986C98.9079 101.514 100.367 101.974 101.276 102.896C102.186 103.817 102.644 105.262 102.651 107.23ZM91.7289 114.46C91.7289 116.638 92.6272 117.726 94.4237 117.723C96.0472 117.723 97.6588 117.448 99.1902 116.909L100.004 116.623V110.775L94.7574 111.27C93.6941 111.366 92.9266 111.674 92.4548 112.194C91.9672 112.711 91.7289 113.47 91.7289 114.46Z" fill="#1C1E23"/>
<path d="M113.031 103.897C110.457 103.897 109.169 104.795 109.166 106.591C109.136 106.937 109.203 107.285 109.36 107.595C109.516 107.904 109.757 108.164 110.054 108.344C110.643 108.689 111.987 109.043 114.087 109.407C116.186 109.772 117.675 110.286 118.553 110.951C119.425 111.613 119.863 112.854 119.865 114.672C119.868 116.491 119.282 117.827 118.109 118.68C116.94 119.531 115.229 119.956 112.976 119.956C111.509 119.956 106.618 119.413 106.618 119.413L106.761 117.111C109.57 117.382 111.604 117.58 112.994 117.58C114.384 117.58 115.41 117.364 116.133 116.927C116.855 116.491 117.214 115.754 117.214 114.727C117.214 113.701 116.906 113 116.29 112.634C115.674 112.267 114.329 111.919 112.257 111.589C110.186 111.259 108.697 110.775 107.824 110.122C106.952 109.47 106.512 108.289 106.512 106.577C106.512 104.865 107.12 103.574 108.345 102.745C109.703 101.88 111.293 101.447 112.902 101.506C114.343 101.506 119.344 101.873 119.344 101.873V104.19C116.697 104.084 114.541 103.897 113.031 103.897Z" fill="#1C1E23"/>
<path d="M132.698 104.179H127.059V112.66C127.059 114.693 127.207 116.029 127.503 116.667C127.8 117.305 128.5 117.624 129.611 117.624L132.768 117.411L132.944 119.611C131.75 119.83 130.542 119.96 129.329 120C127.483 120 126.208 119.551 125.501 118.654C124.795 117.757 124.44 116.046 124.438 113.521V104.179H121.919V101.876H124.438V96.45H127.059V101.876H132.698V104.179Z" fill="#1C1E23"/>
<path d="M136.394 99.6106V96.5271H139.063V99.6106H136.394ZM136.394 119.82V101.877H139.063V119.82H136.394Z" fill="#1C1E23"/>
<path d="M150.572 101.521C151.904 101.577 153.23 101.719 154.543 101.946L155.394 102.053L155.287 104.216C153.899 104.039 152.503 103.933 151.104 103.897C149.095 103.897 147.73 104.375 147.008 105.33C146.287 106.286 145.927 108.06 145.927 110.651C145.927 113.239 146.264 115.042 146.939 116.059C147.613 117.076 149.013 117.583 151.137 117.58L155.324 117.261L155.43 119.461C153.8 119.737 152.152 119.903 150.499 119.956C147.734 119.956 145.827 119.247 144.776 117.83C143.725 116.412 143.198 114.019 143.195 110.651C143.195 107.282 143.764 104.919 144.9 103.56C146.037 102.201 147.928 101.521 150.572 101.521Z" fill="#1C1E23"/>
</svg>
